HIERARCHY
ROOT Hips
{
  OFFSET 90.7885 88.945 -76.2838
  CHANNELS 6 Xposition Yposition Zposition Zrotation Xrotation Yrotation
  JOINT LeftUpLeg
  {
    OFFSET 8.64259 1.95398 -2.38835
    CHANNELS 3 Zrotation Xrotation Yrotation
    JOINT LeftLeg
    {
      OFFSET 43.7702 0 0
      CHANNELS 3 Zrotation Xrotation Yrotation
      JOINT LeftFoot
      {
        OFFSET 40.6238 0 0
        CHANNELS 3 Zrotation Xrotation Yrotation
        JOINT LeftToeBase
        {
          OFFSET 12.7242 0 0
          CHANNELS 3 Zrotation Xrotation Yrotation
          End Site
          {
            OFFSET 0 0 0
          }
        }
      }
    }
  }
  JOINT RightUpLeg
  {
    OFFSET -8.2249 1.95398 -2.59336
    CHANNELS 3 Zrotation Xrotation Yrotation
    JOINT RightLeg
    {
      OFFSET 43.5653 0 0
      CHANNELS 3 Zrotation Xrotation Yrotation
      JOINT RightFoot
      {
        OFFSET 40.6238 0 0
        CHANNELS 3 Zrotation Xrotation Yrotation
        JOINT RightToeBase
        {
          OFFSET 12.7242 0 0
          CHANNELS 3 Zrotation Xrotation Yrotation
          End Site
          {
            OFFSET 0 0 0
          }
        }
      }
    }
  }
  JOINT Spine
  {
    OFFSET 0.165834 0.87714 6.61349
    CHANNELS 3 Zrotation Xrotation Yrotation
    JOINT Spine1
    {
      OFFSET 7.38963 1.71661e-005 0
      CHANNELS 3 Zrotation Xrotation Yrotation
      JOINT Spine2
      {
        OFFSET 11.9445 1.14441e-005 0
        CHANNELS 3 Zrotation Xrotation Yrotation
        JOINT Spine3
        {
          OFFSET 14.7254 4.19617e-005 0
          CHANNELS 3 Zrotation Xrotation Yrotation
          JOINT Spine4
          {
            OFFSET 10.9679 0 0
            CHANNELS 3 Zrotation Xrotation Yrotation
            JOINT RightShoulder
            {
              OFFSET 2.46616 -1.6653 3.69651
              CHANNELS 3 Zrotation Xrotation Yrotation
              JOINT RightArm
              {
                OFFSET 13.0012 0 0
                CHANNELS 3 Zrotation Xrotation Yrotation
                JOINT RightForeArm
                {
                  OFFSET 28.7848 1.52588e-005 0
                  CHANNELS 3 Zrotation Xrotation Yrotation
                  JOINT RightHand
                  {
                    OFFSET 26.5688 1.52588e-005 0
                    CHANNELS 3 Zrotation Xrotation Yrotation
                    End Site
                    {
                      OFFSET 0 0 0
                    }
                  }
                }
              }
            }
            JOINT LeftShoulder
            {
              OFFSET 2.38034 -1.29275 -3.7523
              CHANNELS 3 Zrotation Xrotation Yrotation
              JOINT LeftArm
              {
                OFFSET 16.3182 6.10352e-005 0
                CHANNELS 3 Zrotation Xrotation Yrotation
                JOINT LeftForeArm
                {
                  OFFSET 27.0901 0 0
                  CHANNELS 3 Zrotation Xrotation Yrotation
                  JOINT LeftHand
                  {
                    OFFSET 24.5451 1.52588e-005 0
                    CHANNELS 3 Zrotation Xrotation Yrotation
                    End Site
                    {
                      OFFSET 0 0 0
                    }
                  }
                }
              }
            }
            JOINT Neck
            {
              OFFSET 5.0226 -0.0266342 0
              CHANNELS 3 Zrotation Xrotation Yrotation
              JOINT Head
              {
                OFFSET 6.69363 2.86102e-005 0
                CHANNELS 3 Zrotation Xrotation Yrotation
                End Site
                {
                  OFFSET 0 0 0
                }
              }
            }
          }
        }
      }
    }
  }
}
MOTION
Frames:	15
Frame Time:	0.0416667
-93.1139 89.0236 37.5838 89.1479 -44.4211 85.6624 -167.428 22.2624 114.924 -36.8367 7.81514 -1.13317 64.9624 3.11767 -2.6905 23.1917 -4.90827 7.50207 164.366 32.2005 69.034 -48.8156 -22.6383 0.379809 74.653 -7.61771 0.676046 31.9894 -0.0730903 -0.632113 0.319278 8.26651 -90.1077 10.3416 0.586842 -0.264956 -1.32924 0.574601 -0.290531 -23.8654 0.639337 -0.0763324 -3.85278 0.639325 -0.0763408 93.1891 -25.0511 -101.935 38.1848 -3.53929 5.46684 -0.900058 -16.3543 -25.258 -26.0248 0.598903 -11.8221 -83.9632 -49.2715 87.7232 -23.1002 11.973 2.43345 7.41702 -2.06857 -28.5149 0.832911 -0.180684 -7.59114 -18.1099 18.2333 14.6697 -11.345 17.9665 10.201 
-87.509 86.9898 30.8153 89.5423 -41.6117 88.782 -164.139 27.2125 115.233 -46.0047 8.26975 -2.97031 75.3758 6.43189 -8.06121 35.1034 -10.0439 15.6155 164.329 31.4283 65.8795 -45.762 -21.9276 -0.213647 68.741 -4.59654 2.14621 36.6214 0.0975759 -2.52468 0.415108 8.30032 -90.3932 10.2747 0.647407 -0.836566 -1.39635 0.609949 -0.864256 -23.9315 0.868876 -0.603327 -3.91883 0.868882 -0.603326 93.2032 -25.5686 -101.736 35.872 -1.14585 2.48757 -2.56922 -16.955 -27.2346 -24.8783 0.665208 -12.729 -83.5725 -47.9696 88.1767 -26.0186 12.7188 4.98732 8.0882 -0.0482847 -27.6402 -0.356473 -0.156975 -8.04959 -17.6261 17.3887 10.2398 -12.8533 16.7293 11.6613 
-80.762 87.9972 23.0863 91.4161 -35.2753 91.1148 -162.748 29.8221 110.365 -53.4229 11.9772 -4.23947 82.864 9.49446 -6.16669 27.0512 -4.88586 7.31615 166.049 25.8113 62.1612 -39.4492 -20.8344 -4.3816 56.2577 0.887538 2.58855 31.7725 0.317048 -2.00114 0.255702 8.39762 -90.517 10.0788 0.274154 -1.0498 -1.59257 0.227684 -1.06085 -24.1252 0.576967 -0.918895 -4.11251 0.57698 -0.91889 94.4368 -26.5896 -98.7671 34.1479 2.73888 2.02474 -5.58868 -18.5222 -31.2573 -25.0678 0.690448 -13.4088 -84.407 -45.5125 86.5673 -27.66 15.299 5.35247 7.59842 1.70338 -24.5988 -0.443377 -0.124772 -6.45822 -18.1097 14.788 2.99465 -12.3568 13.919 13.2174 
-74.9225 89.3876 15.6721 92.0499 -30.6256 91.1561 -163.543 27.6852 103.492 -55.1243 11.4623 -4.93257 86.492 10.6423 -6.57744 23.0118 -4.567 7.03061 172.03 24.8721 61.5084 -45.8751 -21.2813 -9.53825 62.8018 -2.10766 -0.620675 15.4519 0.816965 1.103 0.165356 8.44263 -90.4655 9.98836 0.11821 -0.933911 -1.68292 0.077024 -0.93822 -24.2158 0.393413 -0.855222 -4.20315 0.393418 -0.855224 95.0798 -26.4237 -97.4386 34.3253 2.76992 4.5776 -6.2646 -19.5512 -31.4914 -26.4995 0.673197 -13.2227 -85.4513 -45.715 84.9415 -21.7741 19.8225 0.785112 4.91772 1.0275 -19.3512 -1.36131 -0.10758 -6.06204 -20.1016 12.3044 0.91383 -10.7801 11.699 11.6696 
-70.7474 91.3484 9.93916 92.5935 -29.6016 91.1222 -165.696 23.4403 98.199 -52.3543 7.24188 -6.10207 86.9837 10.8097 -5.32171 19.432 -1.9872 3.98298 174.642 29.0494 66.8842 -51.1632 -14.6907 -7.27754 69.2395 -5.31997 -0.661664 15.7864 0.383555 1.7733 0.0043903 8.67058 -90.3543 9.53174 -0.150911 -0.690857 -2.13937 -0.181163 -0.683553 -24.6731 0.0637049 -0.704273 -4.66042 0.0637043 -0.704272 95.2006 -25.8743 -97.3207 35.7908 -0.279881 5.52979 -4.65681 -20.384 -27.7668 -24.7348 0.43214 -12.7625 -85.3077 -45.1688 85.087 -20.4456 15.1133 -2.20319 5.09937 -2.67087 -19.2959 2.36261 -0.132219 -5.37827 -20.7213 11.7443 2.60992 -9.93824 11.399 10.0169 
-67.0869 93.8101 5.64688 91.1804 -30.2384 91.1485 -168.461 19.8335 94.6218 -46.2636 2.45224 -7.41832 85.3528 10.1467 -3.49429 16.9152 -0.345089 2.26988 178.217 34.3275 78.3585 -52.4265 -16.0062 -5.16441 69.1915 -5.33647 -1.35166 18.8703 -0.623957 3.134 -0.185639 8.67071 -90.3027 9.53082 -0.506484 -0.561533 -2.14016 -0.530722 -0.538704 -24.6746 -0.31431 -0.687786 -4.66194 -0.314321 -0.687796 95.2964 -25.7587 -97.143 37.8809 -2.25959 7.36329 -2.53088 -19.7468 -24.5242 -24.529 0.289792 -11.7739 -85.4427 -43.991 84.6898 -20.7404 11.6313 -4.83722 5.69353 -4.95947 -21.7277 0.633238 -0.184231 -7.92365 -21.8183 12.1436 2.62214 -10.6102 11.724 11.0265 
-62.9627 94.9893 2.10079 89.9801 -28.5213 90.2255 -170.345 16.3925 91.1565 -40.9195 1.64058 -9.00654 84.2127 9.67779 -2.0912 15.0735 -0.187561 2.27722 179.634 37.9077 89.5365 -49.139 -19.5017 -3.18506 66.5601 -3.68844 -1.08936 19.3244 0.144393 1.71476 -0.814753 8.64933 -90.147 9.57448 -1.69066 -0.161603 -2.09538 -1.69612 -0.0870246 -24.6381 -1.56389 -0.662356 -4.62541 -1.56391 -0.662364 96.0049 -25.0878 -95.7588 40.9991 -3.06779 9.19236 -0.864366 -18.6561 -21.9207 -25.1778 0.254692 -11.0189 -85.7396 -42.9631 84.0402 -20.0768 8.37656 -6.59822 7.69434 -3.60201 -28.2812 0.590185 -0.226687 -9.60358 -22.1886 12.7411 2.44748 -10.845 12.2059 12.5399 
-58.1915 94.5605 -1.4127 89.3677 -24.3295 88.0668 -171.343 13.7657 86.9423 -38.9486 3.99625 -10.9039 84.9055 10.2058 -0.802515 10.6697 3.33369 -0.845843 174.973 37.1077 98.176 -40.1014 -13.9737 1.65569 61.5102 -0.824438 4.49921 27.1941 2.54032 -5.57811 -1.5047 8.62632 -89.9792 9.62691 -2.99036 0.272855 -2.04067 -2.97546 0.404313 -24.6025 -2.93401 -0.63929 -4.5899 -2.93399 -0.639273 97.401 -24.9538 -92.7037 43.0914 -1.82905 11.805 0.751961 -15.6039 -19.5665 -23.8923 0.459918 -11.479 -86.2841 -42.3408 83.039 -18.4424 6.39161 -12.4104 9.46869 -2.06557 -31.6447 -0.138691 -0.211785 -10.731 -21.572 12.6858 1.93911 -11.6475 11.9573 13.2891 
-52.2515 92.3266 -4.99211 89.4531 -20.8023 86.6486 -170.85 11.0166 83.6865 -40.8776 7.37672 -13.4756 89.342 12.1824 -1.04073 8.13898 7.17623 -4.2955 170.84 31.175 104.183 -26.7191 -4.3248 6.06396 62.8823 -1.17825 0.979586 28.2569 -0.637375 1.60579 -1.86268 8.56984 -89.8946 9.74556 -3.66551 0.498675 -1.92037 -3.64 0.659721 -24.4965 -3.64566 -0.627516 -4.48381 -3.64568 -0.627524 98.1388 -24.9683 -91.0639 45.2319 -0.942834 14.3296 1.96964 -14.6366 -16.6718 -23.6677 0.24196 -10.0561 -86.8465 -41.7639 82.0019 -16.3268 6.21396 -20.4359 10.9479 -0.0208337 -33.2308 0.306185 -0.242595 -10.8671 -21.948 12.0697 0.172275 -11.9591 11.1755 13.7519 
-45.5763 90.1852 -9.30891 88.3157 -16.9896 85.9887 -172.129 7.25846 79.8308 -40.2258 6.70162 -13.8957 93.4803 12.8121 -4.7007 2.67164 8.64001 -4.35768 171.919 31.5835 104.702 -25.9811 -0.307564 5.83919 62.5646 -0.844574 3.1561 28.4219 -0.472974 1.22764 -2.19636 8.38954 -90.1064 10.107 -4.42512 0.161102 -1.55643 -4.41373 0.356069 -24.1494 -4.2686 -1.17877 -4.13679 -4.26861 -1.17878 98.6462 -24.9777 -89.9342 46.0454 -1.50199 14.1263 2.86324 -14.2297 -15.2336 -23.8536 0.148649 -9.40401 -87.5085 -41.9879 80.9517 -12.8903 8.4035 -28.1118 11.6433 2.2545 -32.4831 -0.370223 -0.205064 -10.9828 -20.9386 11.4645 -0.995237 -12.9384 10.3364 14.1621 
-37.1037 89.4902 -14.8623 87.1103 -15.038 88.5698 -174.096 2.29902 77.8488 -35.7559 6.9492 -12.8708 88.6655 11.14 -3.33176 7.0013 11.7502 -9.08276 173.379 33.583 104.643 -34.0315 -4.98138 4.5984 69.0178 -3.89073 -1.07186 15.2936 -1.31316 4.51385 -2.18576 8.34214 -91.0221 10.1687 -4.82237 -1.62678 -1.49381 -4.88929 -1.41253 -24.0776 -4.11022 -3.00254 -4.06497 -4.11022 -3.00255 98.7647 -23.9506 -89.8148 44.0503 0.109244 12.0326 1.57605 -14.4469 -17.0949 -24.6689 0.162284 -9.38595 -88.2618 -41.6013 79.6255 -11.6902 14.1113 -35.4186 8.86599 2.21675 -26.9399 -2.02234 -0.11323 -11.6662 -20.0975 10.3675 0.971609 -13.4099 9.25039 13.8872 
-29.3698 89.397 -19.248 88.5448 -15.0616 90.2254 -167.875 0.101297 82.458 -35.8647 20.0998 -13.1859 74.3804 4.4322 -8.35195 27.7954 -6.24368 10.4259 174.58 34.7462 103.831 -46.5934 -4.29658 2.52789 76.3837 -7.82703 -3.84427 8.80456 -2.13537 6.73741 -1.83546 8.35949 -91.3849 10.1047 -4.28832 -2.39003 -1.56102 -4.3893 -2.19878 -24.1168 -3.37211 -3.5686 -4.10413 -3.37212 -3.5686 98.6122 -24.4258 -90.0886 42.9014 -0.037261 9.8166 1.33012 -13.6434 -17.7695 -25.1406 0.435297 -10.46 -88.1225 -41.0529 79.736 -7.18551 22.937 -39.5269 6.8073 5.2427 -25.1429 -2.99886 -0.0500954 -11.8802 -23.8508 9.55803 1.56737 -12.6707 8.88673 11.1355 
-22.9356 90.9674 -22.4501 90.5215 -14.2098 90.2662 -160.393 9.66307 92.8259 -57.5121 24.8927 -8.98991 75.6442 6.43555 -1.98436 26.0035 -2.54598 4.05525 175.585 29.6908 99.762 -48.3639 -1.62437 0.759863 79.475 -8.72589 0.763361 14.2847 -1.04392 4.46493 -1.48549 8.34409 -91.0054 10.1594 -3.41843 -1.70766 -1.50796 -3.49026 -1.55543 -24.0594 -2.74728 -2.65634 -4.04678 -2.7473 -2.65635 97.8979 -24.8753 -91.6143 46.57 -2.72461 8.76712 1.65059 -15.7574 -18.0345 -25.5971 0.474848 -11.1396 -87.8808 -42.8892 80.5283 -4.91905 27.3722 -33.1182 5.15421 2.92931 -26.8499 -2.44787 -0.0866798 -10.209 -27.6361 8.75189 -1.15906 -11.7175 8.09611 9.66896 
-17.2329 93.1392 -26.0209 92.0313 -16.2852 88.5162 -163.314 19.3988 99.9063 -64.2169 17.1374 -3.01316 77.8836 8.18111 0.499814 13.0201 2.78219 -0.679425 176.221 23.5712 94.4524 -45.7423 -5.8401 -1.44346 79.7754 -9.31826 0.164902 18.4512 -1.02766 3.95544 -1.02705 8.4243 -90.408 10.0195 -2.23227 -0.62471 -1.64965 -2.25759 -0.525824 -24.1959 -1.94133 -1.26693 -4.18325 -1.9413 -1.26692 97.6817 -23.5102 -92.3459 49.4044 -5.9441 6.51699 2.09767 -16.0423 -18.847 -25.7988 0.585916 -11.6933 -87.3037 -44.982 81.8733 -11.5891 22.0967 -18.1125 5.45203 0.17828 -25.6656 -0.972089 -0.151162 -9.22212 -28.7421 8.94044 -1.35644 -9.56854 8.48345 9.04562 
-11.2624 94.0426 -29.983 92.7295 -20.4515 87.6488 -168.785 22.9666 108.304 -51.5462 18.648 0.506664 73.3132 6.52973 0.997032 6.84571 4.08134 -0.944138 176.025 19.6276 89.6844 -45.1432 -10.5908 -3.11002 81.8452 -10.6253 0.870012 20.5001 -0.669232 2.99524 -0.669002 8.47475 -90.0922 9.92283 -1.37518 -0.0717397 -1.74739 -1.37698 -0.0111472 -24.2878 -1.29002 -0.481789 -4.27512 -1.29003 -0.481796 97.1178 -22.1964 -93.902 48.2737 -5.98862 3.96606 1.46889 -16.2135 -20.1739 -26.3323 0.560837 -11.4861 -86.9633 -47.2912 82.8252 -17.2467 14.1802 -3.50381 4.46058 -5.41895 -21.5077 2.23369 -0.209599 -7.67186 -30.029 9.843 1.08661 -9.20917 9.76575 8.70671 
